<mxfile host="app.diagrams.net" modified="2022-10-25T12:27:45.752Z" agent="5.0 (X11; Ubuntu)" etag="Wd0PjIm579srfG0LltpF" version="20.4.2" type="github">
  <diagram id="7ZEajGeMnrBSnoidg-YK" name="Page-1">
    <mxGraphModel dx="1422" dy="820" grid="1" gridSize="10" guides="1" tooltips="1" connect="1" arrows="1" fold="1" page="1" pageScale="1" pageWidth="827" pageHeight="1169" math="0" shadow="0">
      <root>
        <mxCell id="0" />
        <mxCell id="1" parent="0" />
        <mxCell id="nId9yDk2bHna9kCMeqKH-4" value="Client" style="shape=umlActor;verticalLabelPosition=bottom;verticalAlign=top;html=1;outlineConnect=0;" vertex="1" parent="1">
          <mxGeometry x="300" y="30" width="30" height="60" as="geometry" />
        </mxCell>
        <mxCell id="nId9yDk2bHna9kCMeqKH-11" value="&lt;div&gt;&lt;br&gt;&lt;/div&gt;&lt;div&gt;consulte le catalogue&lt;br&gt;&lt;/div&gt;" style="ellipse;whiteSpace=wrap;html=1;verticalAlign=top;" vertex="1" parent="1">
          <mxGeometry x="50" y="200" width="120" height="60" as="geometry" />
        </mxCell>
        <mxCell id="nId9yDk2bHna9kCMeqKH-23" value="&lt;div&gt;peut modifier&lt;/div&gt;&lt;div&gt;les coefficients&lt;/div&gt;&lt;div&gt;clients&lt;br&gt;&lt;/div&gt;" style="ellipse;whiteSpace=wrap;html=1;verticalAlign=top;" vertex="1" parent="1">
          <mxGeometry x="255" y="585" width="145" height="85" as="geometry" />
        </mxCell>
        <mxCell id="nId9yDk2bHna9kCMeqKH-30" value="&lt;div&gt;Equipe&lt;/div&gt;&lt;div&gt;&lt;br&gt;&lt;/div&gt;" style="shape=umlActor;verticalLabelPosition=bottom;verticalAlign=top;html=1;outlineConnect=0;" vertex="1" parent="1">
          <mxGeometry x="540" y="682.5" width="30" height="65" as="geometry" />
        </mxCell>
        <mxCell id="nId9yDk2bHna9kCMeqKH-31" value="&lt;div&gt;&lt;br&gt;&lt;/div&gt;&lt;div&gt;validation du panier&lt;br&gt;&lt;/div&gt;enregistrer une commande" style="ellipse;whiteSpace=wrap;html=1;verticalAlign=top;" vertex="1" parent="1">
          <mxGeometry x="220" y="330" width="120" height="70" as="geometry" />
        </mxCell>
        <mxCell id="nId9yDk2bHna9kCMeqKH-33" value="&lt;div&gt;&lt;br&gt;&lt;/div&gt;&lt;div&gt;visualisation du panier&lt;br&gt;&lt;/div&gt;" style="ellipse;whiteSpace=wrap;html=1;verticalAlign=top;" vertex="1" parent="1">
          <mxGeometry x="220" y="220" width="120" height="60" as="geometry" />
        </mxCell>
        <mxCell id="nId9yDk2bHna9kCMeqKH-39" value="&lt;div&gt;&lt;br&gt;&lt;/div&gt;&lt;div&gt;s&#39;inscrit&lt;/div&gt;" style="ellipse;whiteSpace=wrap;html=1;verticalAlign=top;" vertex="1" parent="1">
          <mxGeometry x="370" y="170" width="120" height="60" as="geometry" />
        </mxCell>
        <mxCell id="nId9yDk2bHna9kCMeqKH-49" value="&lt;div&gt;&lt;br&gt;&lt;/div&gt;&lt;div&gt;visualisation des anciennes commandes&lt;br&gt;&lt;/div&gt;" style="ellipse;whiteSpace=wrap;html=1;verticalAlign=top;" vertex="1" parent="1">
          <mxGeometry x="20" y="40" width="125" height="80" as="geometry" />
        </mxCell>
        <mxCell id="nId9yDk2bHna9kCMeqKH-52" value="&lt;div&gt;&lt;br&gt;&lt;/div&gt;&lt;div&gt;ajout de produit dans le panier &lt;br&gt;&lt;/div&gt;" style="ellipse;whiteSpace=wrap;html=1;verticalAlign=top;" vertex="1" parent="1">
          <mxGeometry x="60" y="310" width="120" height="60" as="geometry" />
        </mxCell>
        <mxCell id="nId9yDk2bHna9kCMeqKH-60" value="&lt;div&gt;&lt;br&gt;&lt;/div&gt;&lt;div&gt;connexion/deconnexion&lt;br&gt;&lt;/div&gt;" style="ellipse;whiteSpace=wrap;html=1;verticalAlign=top;" vertex="1" parent="1">
          <mxGeometry x="490" y="240" width="150" height="70" as="geometry" />
        </mxCell>
        <mxCell id="nId9yDk2bHna9kCMeqKH-75" value="&lt;div&gt;&lt;br&gt;&lt;/div&gt;&lt;div&gt;peut attribuer une reduction spécifique sur le total&lt;br&gt;&lt;/div&gt;" style="ellipse;whiteSpace=wrap;html=1;verticalAlign=top;" vertex="1" parent="1">
          <mxGeometry x="274" y="747.5" width="140" height="90" as="geometry" />
        </mxCell>
        <mxCell id="nId9yDk2bHna9kCMeqKH-83" value="gérer son profil" style="ellipse;whiteSpace=wrap;html=1;" vertex="1" parent="1">
          <mxGeometry x="660" y="320" width="120" height="80" as="geometry" />
        </mxCell>
        <mxCell id="nId9yDk2bHna9kCMeqKH-94" value="" style="endArrow=classic;html=1;rounded=0;entryX=0.24;entryY=0.074;entryDx=0;entryDy=0;entryPerimeter=0;" edge="1" parent="1" target="nId9yDk2bHna9kCMeqKH-39">
          <mxGeometry width="50" height="50" relative="1" as="geometry">
            <mxPoint x="330" y="120" as="sourcePoint" />
            <mxPoint x="470" y="340" as="targetPoint" />
          </mxGeometry>
        </mxCell>
        <mxCell id="nId9yDk2bHna9kCMeqKH-95" value="" style="endArrow=classic;html=1;rounded=0;" edge="1" parent="1" target="nId9yDk2bHna9kCMeqKH-33">
          <mxGeometry width="50" height="50" relative="1" as="geometry">
            <mxPoint x="300" y="130" as="sourcePoint" />
            <mxPoint x="470" y="340" as="targetPoint" />
          </mxGeometry>
        </mxCell>
        <mxCell id="nId9yDk2bHna9kCMeqKH-96" value="" style="endArrow=classic;html=1;rounded=0;entryX=0.721;entryY=0.074;entryDx=0;entryDy=0;entryPerimeter=0;" edge="1" parent="1" target="nId9yDk2bHna9kCMeqKH-11">
          <mxGeometry width="50" height="50" relative="1" as="geometry">
            <mxPoint x="280" y="100" as="sourcePoint" />
            <mxPoint x="470" y="340" as="targetPoint" />
          </mxGeometry>
        </mxCell>
        <mxCell id="nId9yDk2bHna9kCMeqKH-97" value="" style="endArrow=classic;html=1;rounded=0;entryX=0.998;entryY=0.393;entryDx=0;entryDy=0;entryPerimeter=0;" edge="1" parent="1" target="nId9yDk2bHna9kCMeqKH-49">
          <mxGeometry width="50" height="50" relative="1" as="geometry">
            <mxPoint x="280" y="60" as="sourcePoint" />
            <mxPoint x="470" y="340" as="targetPoint" />
          </mxGeometry>
        </mxCell>
        <mxCell id="nId9yDk2bHna9kCMeqKH-98" value="" style="endArrow=classic;html=1;rounded=0;exitX=0.946;exitY=0.77;exitDx=0;exitDy=0;exitPerimeter=0;entryX=0.267;entryY=0;entryDx=0;entryDy=0;entryPerimeter=0;" edge="1" parent="1" source="nId9yDk2bHna9kCMeqKH-39" target="nId9yDk2bHna9kCMeqKH-60">
          <mxGeometry width="50" height="50" relative="1" as="geometry">
            <mxPoint x="420" y="390" as="sourcePoint" />
            <mxPoint x="470" y="340" as="targetPoint" />
          </mxGeometry>
        </mxCell>
        <mxCell id="nId9yDk2bHna9kCMeqKH-99" value="" style="endArrow=classic;html=1;rounded=0;exitX=0.945;exitY=0.836;exitDx=0;exitDy=0;exitPerimeter=0;entryX=0;entryY=0;entryDx=0;entryDy=0;" edge="1" parent="1" source="nId9yDk2bHna9kCMeqKH-60" target="nId9yDk2bHna9kCMeqKH-83">
          <mxGeometry width="50" height="50" relative="1" as="geometry">
            <mxPoint x="420" y="390" as="sourcePoint" />
            <mxPoint x="470" y="340" as="targetPoint" />
          </mxGeometry>
        </mxCell>
        <mxCell id="nId9yDk2bHna9kCMeqKH-102" value="" style="endArrow=classic;html=1;rounded=0;entryX=0.667;entryY=1;entryDx=0;entryDy=0;entryPerimeter=0;" edge="1" parent="1" target="nId9yDk2bHna9kCMeqKH-39">
          <mxGeometry width="50" height="50" relative="1" as="geometry">
            <mxPoint x="550" y="670" as="sourcePoint" />
            <mxPoint x="470" y="340" as="targetPoint" />
          </mxGeometry>
        </mxCell>
        <mxCell id="nId9yDk2bHna9kCMeqKH-103" value="met à jour le catalogue" style="ellipse;whiteSpace=wrap;html=1;" vertex="1" parent="1">
          <mxGeometry x="330" y="480" width="120" height="80" as="geometry" />
        </mxCell>
        <mxCell id="nId9yDk2bHna9kCMeqKH-104" value="met à jour le stock" style="ellipse;whiteSpace=wrap;html=1;" vertex="1" parent="1">
          <mxGeometry x="660" y="545" width="120" height="80" as="geometry" />
        </mxCell>
        <mxCell id="nId9yDk2bHna9kCMeqKH-105" value="valide des produits/désactive d&#39;anciens produits" style="ellipse;whiteSpace=wrap;html=1;" vertex="1" parent="1">
          <mxGeometry x="145" y="660" width="120" height="80" as="geometry" />
        </mxCell>
        <mxCell id="nId9yDk2bHna9kCMeqKH-106" value="" style="endArrow=classic;html=1;rounded=0;exitX=0.5;exitY=1;exitDx=0;exitDy=0;" edge="1" parent="1" source="nId9yDk2bHna9kCMeqKH-33" target="nId9yDk2bHna9kCMeqKH-31">
          <mxGeometry width="50" height="50" relative="1" as="geometry">
            <mxPoint x="420" y="390" as="sourcePoint" />
            <mxPoint x="470" y="340" as="targetPoint" />
          </mxGeometry>
        </mxCell>
        <mxCell id="nId9yDk2bHna9kCMeqKH-107" value="" style="endArrow=classic;html=1;rounded=0;exitX=0.583;exitY=1;exitDx=0;exitDy=0;exitPerimeter=0;" edge="1" parent="1" source="nId9yDk2bHna9kCMeqKH-11" target="nId9yDk2bHna9kCMeqKH-52">
          <mxGeometry width="50" height="50" relative="1" as="geometry">
            <mxPoint x="420" y="390" as="sourcePoint" />
            <mxPoint x="470" y="340" as="targetPoint" />
          </mxGeometry>
        </mxCell>
        <mxCell id="nId9yDk2bHna9kCMeqKH-109" value="" style="endArrow=classic;html=1;rounded=0;entryX=1;entryY=1;entryDx=0;entryDy=0;" edge="1" parent="1" target="nId9yDk2bHna9kCMeqKH-103">
          <mxGeometry width="50" height="50" relative="1" as="geometry">
            <mxPoint x="530" y="690" as="sourcePoint" />
            <mxPoint x="470" y="340" as="targetPoint" />
          </mxGeometry>
        </mxCell>
        <mxCell id="nId9yDk2bHna9kCMeqKH-110" value="" style="endArrow=classic;html=1;rounded=0;" edge="1" parent="1" target="nId9yDk2bHna9kCMeqKH-104">
          <mxGeometry width="50" height="50" relative="1" as="geometry">
            <mxPoint x="580" y="690" as="sourcePoint" />
            <mxPoint x="470" y="340" as="targetPoint" />
          </mxGeometry>
        </mxCell>
        <mxCell id="nId9yDk2bHna9kCMeqKH-111" value="" style="endArrow=classic;html=1;rounded=0;entryX=1;entryY=0.5;entryDx=0;entryDy=0;" edge="1" parent="1" target="nId9yDk2bHna9kCMeqKH-75">
          <mxGeometry width="50" height="50" relative="1" as="geometry">
            <mxPoint x="530" y="740" as="sourcePoint" />
            <mxPoint x="470" y="340" as="targetPoint" />
          </mxGeometry>
        </mxCell>
        <mxCell id="nId9yDk2bHna9kCMeqKH-112" value="" style="endArrow=classic;html=1;rounded=0;" edge="1" parent="1">
          <mxGeometry width="50" height="50" relative="1" as="geometry">
            <mxPoint x="520" y="710" as="sourcePoint" />
            <mxPoint x="270" y="710" as="targetPoint" />
          </mxGeometry>
        </mxCell>
        <mxCell id="nId9yDk2bHna9kCMeqKH-113" value="" style="endArrow=classic;html=1;rounded=0;entryX=0.991;entryY=0.685;entryDx=0;entryDy=0;entryPerimeter=0;" edge="1" parent="1" target="nId9yDk2bHna9kCMeqKH-23">
          <mxGeometry width="50" height="50" relative="1" as="geometry">
            <mxPoint x="510" y="700" as="sourcePoint" />
            <mxPoint x="470" y="340" as="targetPoint" />
          </mxGeometry>
        </mxCell>
      </root>
    </mxGraphModel>
  </diagram>
</mxfile>
